<svg xmlns="http://www.w3.org/2000/svg" xmlns:xlink="http://www.w3.org/1999/xlink" viewBox="0 0 1000 1000"><defs><style>.cls-1{fill:url(#linear-gradient);}.cls-2{opacity:0.12;}.cls-3{fill:url(#linear-gradient-2);}.cls-4{fill:#f8df00;}.cls-5{fill:#fff000;}.cls-6{fill:#53227e;}.cls-7{fill:#5e2b8d;}.cls-8{fill:#d2242d;}</style><linearGradient id="linear-gradient" x1="483.76" y1="808.42" x2="483.76" y2="96.05" gradientUnits="userSpaceOnUse"><stop offset="0" stop-color="#481a70"/><stop offset="1" stop-color="#5e2b8d"/></linearGradient><linearGradient id="linear-gradient-2" x1="500" y1="927.26" x2="500" y2="72.74" gradientUnits="userSpaceOnUse"><stop offset="0" stop-color="#f2f2f2"/><stop offset="1" stop-color="#fff"/></linearGradient></defs><g id="Icon"><path id="Inner_Content" data-name="Inner Content" class="cls-1" d="M169.42,798.61c-.11-60.23-.07-143.61,0-231.89.07-139.13.16-296.83-.35-395.56l0-6.53,6-2.5c40.32-16.67,78.46-30.32,113.34-40.57l.15,0,.16,0A794.64,794.64,0,0,1,486.53,96.05a692.93,692.93,0,0,1,106.05,8c97,11.95,149.92,34.31,176.77,74.73,12,18.08,19.16,40.29,22.48,69.9,3,26.3,2.79,56.26,2.58,90.94-.16,27.32-.34,58.28,1.07,92v.63c-.52,23.18.35,86.07,1.28,152.65,1.25,90.6,2.56,184.25,1.06,213.56v.33c-.09,3.79-2.89,9.45-10.24,9.49H381.2l-90.89,0c-4.3.05-9.76.07-16.71.07-9.82,0-21.11,0-33.08-.09-12.42,0-25.27-.09-36.84-.09-10.22,0-18.21,0-24.43.11l-9.82.12Z"/><path id="Shadow" class="cls-2" d="M795.54,487.58c0-.23,0-.46,0-.69,0-.63,0-1.26,0-1.88,0-1.29,0-2.55,0-3.81,0-.93,0-1.85,0-2.77s0-1.82,0-2.72,0-1.51,0-2.25c0-2.79,0-5.5,0-8.1,0-.83,0-1.64,0-2.44-.05-13.15,0-23.7.14-30.66v-.62c-1.41-33.75-1.23-64.71-1.07-92,.21-34.67.38-64.62-2.58-90.93-3.32-29.61-10.47-51.82-22.48-69.9C742.51,138.35,689.63,116,592.59,104a693.17,693.17,0,0,0-106.06-8,795.16,795.16,0,0,0-197.82,25.41l-.16,0-.16,0c-34.87,10.25-73,23.9-113.33,40.57l-6,2.5,0,6.53c.5,98.73.42,256.42.34,395.55v6.41l5.64-1.36c7.18-1.78,14.38-3.38,21.57-5q43.23-9.75,87-16.81a1512.15,1512.15,0,0,1,354-15.4q44.33,3.25,88.46,9.12c3.89.51,7.79,1,11.67,1.59a79.08,79.08,0,0,1,57.81-52.46C795.57,491,795.55,489.28,795.54,487.58Zm-35.72,17a84.31,84.31,0,0,0-25.42,35l-7.62-1c-29.44-3.9-59.3-7-88.76-9.15-37-2.72-74.8-4.1-112.22-4.1-21.85,0-44,.47-65.95,1.4a1535.26,1535.26,0,0,0-177,18.15c-29.9,4.87-59.28,10.54-87.35,16.88l-5.54,1.27c-5.1,1.16-10.38,2.37-15.56,3.65v-1.05c.07-136.92.15-292.12-.34-389.28l0-6.43,5.94-2.46c39.69-16.41,77.21-29.83,111.54-39.93l.16,0,.15-.05a782.7,782.7,0,0,1,194.69-25,682.8,682.8,0,0,1,104.37,7.84c95.51,11.77,147.54,33.77,174,73.56,11.82,17.8,18.85,39.65,22.13,68.79,2.9,25.89,2.73,55.36,2.53,89.5-.16,26.89-.33,57.36,1,90.56l0,.32v.3c-.25,10.88-.18,30.65.06,55.46A84.41,84.41,0,0,0,759.82,504.62ZM798.49,741.3c0-1.2,0-2.42,0-3.65,0-.24,0-.49,0-.74,0-2.82,0-5.7,0-8.63,0-2,0-3.95,0-5.95,0-.75,0-1.5,0-2.26q0-3.41,0-6.92c-.11-13.67-.25-28.3-.44-43.49,0-2.09,0-4.18-.07-6.28,0-3.5-.09-7-.13-10.56,0-1.71,0-3.44-.06-5.18A79.07,79.07,0,0,1,733.8,570c0-.5,0-1,0-1.51q-5.54-.9-11.06-1.77-43.26-6.78-86.92-11a1495.43,1495.43,0,0,0-350.27,7q-43.54,6-86.69,14.64c-7.19,1.48-14.37,2.9-21.53,4.5l-7.95,1.73c0,1.73,0,3.47,0,5.2v2.65c0,3.92,0,7.83,0,11.71,0,74.56-.06,143.61,0,195.49v9.81l9.82-.12c6.22-.07,14.21-.11,24.43-.11,11.57,0,24.42,0,36.84.09,12,0,23.26.09,33.08.09,6.95,0,12.41,0,16.71-.07,29.06,0,59.62,0,90.89,0H495.45l110.77,0H779.6l6.28,0h1.71c7.35,0,10.15-5.7,10.24-9.5v-.31C798.4,787.39,798.57,767.13,798.49,741.3Zm-5.63,52.45v.31c-.08,3.74-2.84,9.3-10.07,9.34H293.37c-4.23,0-9.61.06-16.45.06-9.65,0-20.77,0-32.54-.08-12.23,0-24.87-.09-36.26-.09-10.06,0-17.93,0-24.05.11l-9.66.12v-9.67c-.1-54.24-.08-127.57,0-206.21l.21,0,3.87-.84c5.26-1.18,10.65-2.27,15.86-3.33l5.57-1.15c27.76-5.57,56.83-10.49,86.38-14.58A1506.08,1506.08,0,0,1,460.71,554c9.58-.19,19.29-.28,28.86-.28,48.74,0,97.79,2.37,145.78,7,28.78,2.79,57.92,6.5,86.63,11l6.79,1.08a84.17,84.17,0,0,0,64,79C793.52,715.9,794,772.31,792.86,793.75Z"/><g id="Outline"><path id="Outline-2" data-name="Outline" class="cls-3" d="M890.33,553A79.17,79.17,0,0,0,818.88,491c-.26-26.2-.34-47.06-.09-58.26l0-1.06-.05-1.06c-1.39-33.19-1.2-63.85-1-90.92.42-72.15.75-129.14-29-173.87-16.12-24.27-39.73-42.75-72.18-56.51C686.38,96.55,646.86,87.26,595.8,81a716,716,0,0,0-109.27-8.21A818.15,818.15,0,0,0,282.91,98.89l-.55.15-.54.15c-35.67,10.48-74.58,24.41-115.67,41.4l-20.52,8.48.11,22.21c.5,98.68.42,256.35.35,395.45q0,6.21,0,12.39l-3.23.9-10.64,3-21.28,5.94a4.24,4.24,0,0,0,2.15,8.2l21.42-5.28,10.71-2.63.87-.21c-.05,79.94-.08,154.49,0,209.65l0,33.37,33.37-.41c6.13-.07,14-.1,24.15-.1,7.48,0,15.49,0,23.58,0L271,916.33c3.45,6.66,10.94,10.93,19.19,10.93H680.45c8.38,0,16-4.4,19.33-11.22l41.72-84.42h46.9a33,33,0,0,0,32.73-32.26v0c.31-6.23.5-15.08.6-26l.14-6.23h-.1c.17-29.77-.25-72.33-.83-118.32A79.22,79.22,0,0,0,890.33,553ZM169,164.63l6-2.5c40.32-16.67,78.46-30.32,113.33-40.57l.16,0,.16,0A795.16,795.16,0,0,1,486.53,96.06a693.17,693.17,0,0,1,106.06,8c97,11.95,149.92,34.31,176.76,74.73,12,18.08,19.16,40.29,22.48,69.9,3,26.31,2.79,56.26,2.58,90.93-.16,27.33-.34,58.29,1.07,92v.62c-.27,11.65-.18,33.35.1,60.5a79.08,79.08,0,0,0-57.81,52.46c-3.88-.54-7.78-1.08-11.67-1.59q-44.1-5.85-88.46-9.12a1512.15,1512.15,0,0,0-354,15.4q-43.77,7.13-87,16.81c-7.19,1.66-14.39,3.26-21.57,5l-5.64,1.36v-6.41c.08-139.13.16-296.82-.34-395.55ZM797.83,798.48v.31c-.09,3.8-2.89,9.45-10.24,9.5h-1.71l-6.28,0H606.22l-110.77,0H381.2c-31.27,0-61.83,0-90.89,0-4.3,0-9.76.07-16.71.07-9.82,0-21.11,0-33.08-.09-12.42,0-25.27-.09-36.84-.09-10.22,0-18.21,0-24.43.11l-9.82.12v-9.81c-.1-56.38-.07-133.06,0-215.05l7.95-1.73c7.16-1.6,14.34-3,21.53-4.5q43.11-8.67,86.69-14.64a1495.43,1495.43,0,0,1,350.27-7q43.62,4.25,86.92,11,5.54.87,11.06,1.77c0,.51,0,1,0,1.51a79.07,79.07,0,0,0,63.82,77.65C798.48,715.52,799,776,797.83,798.48Z"/></g><g id="Main_Text" data-name="Main Text"><g id="Hub"><path class="cls-4" d="M373.09,509.12,371.92,133.9q-34.82,5.52-69.12,14.48l.48,131.07q-16.27,3.38-32.41,7.35l-.42-129.14a712.89,712.89,0,0,0-66.95,24.67l.09,346.93q33.82-5.84,68-10.26-.27-81.92-.53-163.83,16.15-3.44,32.43-6.32.32,83.14.62,166.29Q338.5,511.42,373.09,509.12Z"/><path class="cls-4" d="M484.62,508.93c29.09,0,50.51-8.17,64.29-25.31s20.71-42.61,20.8-76.91q.36-138.15.71-276.29-34.14-4.18-68.52-5.06-.07,137.71-.16,275.43a181.15,181.15,0,0,1-.9,18.35q-.9,8.85-4.48,14.32c-2.39,3.65-6.3,5.45-11.74,5.45s-9.14-1.85-11.53-5.58-3.91-8.5-4.58-14.32a159.86,159.86,0,0,1-1-18.25q-.08-137.72-.14-275.45-34.33.78-68.54,4.86.36,138.2.7,276.4c.09,34.31,7,59.81,20.8,77S455.53,508.92,484.62,508.93Z"/><path class="cls-4" d="M736.57,510.58c10.89-7.72,18.37-19.48,22.49-35.5s6.17-35.13,6.17-57.58c0-20.86-2.58-39.24-7.73-55.3a61.53,61.53,0,0,0-30.6-36.57c11.7-.1,20.37-4.27,26.05-12.69s8.5-20.66,8.5-37q0-7.6,0-15.2,0-42.4-16.57-67.46c-11.09-16.63-28.85-29.77-53.71-37.36a713.67,713.67,0,0,0-93.85-21.71q-.6,187.52-1.18,375,47.11,3.18,93.81,9C710.17,520.82,725.69,518.29,736.57,510.58ZM665,205.26q7.25,1.73,14.46,3.6c9.75,2.55,14.58,9.79,14.54,21.42l-.12,36.38c0,7.27-.95,13.27-2.78,18s-5.94,6.42-12.32,5q-7-1.56-14.08-3Zm-.9,245L664.53,344q6.38,1.15,12.72,2.38c8.09,1.58,13.56,5.73,16.47,12.29s4.33,15,4.3,25.23L697.87,429c-.06,17.77-9,25.12-26.87,22.59Q668.45,451.25,664.14,450.24Z"/><g id="Top"><path class="cls-5" d="M372.45,304.93C310.84,310.64,253.71,321,203.54,335l0-152.7a712.89,712.89,0,0,1,66.95-24.67q.23,64.58.42,129.14,16.14-4,32.41-7.34-.24-65.53-.49-131.08,34.27-9,69.13-14.47Q372.19,219.43,372.45,304.93Z"/><path class="cls-5" d="M467.36,125.3q0,87.33.1,174.66c-23.18.3-45.95,1.25-68.19,2.79q-.22-86.3-.44-172.58Q433,126.09,467.36,125.3Z"/><path class="cls-5" d="M570.43,130.41q-.24,86.24-.45,172.47c-22.24-1.58-45-2.56-68.18-2.89q.06-87.33.1-174.63Q536.23,126.23,570.43,130.41Z"/><path class="cls-5" d="M744.89,193.3c-11.09-16.63-28.86-29.77-53.71-37.36a715.28,715.28,0,0,0-93.85-21.71q-.29,85.43-.54,170.86a1009.83,1009.83,0,0,1,130.13,20.54c11.69-.11,20.35-4.27,26-12.69s8.5-20.66,8.5-37q0-7.6,0-15.21Q761.48,218.38,744.89,193.3Zm-51,73.37c0,7.26-.95,13.26-2.79,18s-5.92,6.42-12.31,5q-7-1.58-14.08-3l.3-81.45q7.25,1.73,14.46,3.61c9.76,2.55,14.58,9.79,14.55,21.41Q694,248.46,693.92,266.67Z"/></g></g><g id="Brawl"><path class="cls-4" d="M273.47,674.73a25.39,25.39,0,0,0,15-12.66q4.92-9.32,4.87-23.9l0-9c-.07-16.85-3.35-28.69-9.85-35.38s-16.86-9.3-31-7.71q-26.39,3-52.58,6.6V788.69H253c11.51,0,20.38-2.74,26.59-8.29S290.11,767,292.45,757s3.48-21.81,3.44-35.22q-.08-18.71-4.63-31.5T273.47,674.73Zm-35.64-55.94L246,618q8.29-.81,8.33,9l.06,20.4a32.39,32.39,0,0,1-1.53,10.6q-1.55,4.49-7,4.87l-8,.58Q237.89,641.11,237.83,618.79ZM257.22,737.9q0,15-15.2,15.31c-1,0-2.27,0-3.89-.15q-.07-29.12-.13-58.23l7.21-.39q6.89-.37,9.39,4.52t2.54,13.55Q257.19,725.22,257.22,737.9Z"/><path class="cls-4" d="M400.47,662.69q4-10.55,4-28.06a164.28,164.28,0,0,0-2.71-31.46q-2.65-13.35-10.4-20.49t-22.85-6.33q-30.18,1.67-60.24,4.2.39,104.07.77,208.14h39.66q-.18-48.16-.34-96.32,7.8-.23,11.33,1.91t3.55,11.41l.27,83h38.66q-.1-40.47-.2-80.94,0-12.64-3.8-20.53t-13-9.72Q396.42,673.22,400.47,662.69ZM358,655.41l-9.49.37q-.06-19.56-.13-39.11l9.15-.46c3.27-.17,5.51,1,6.71,3.53s1.82,7.92,1.84,16.2Q366.09,655.11,358,655.41Z"/><path class="cls-4" d="M431,573.85q-9.35,107.65-18.58,214.84h38.1q1.22-17.37,2.42-34.74,11.82,0,23.64,0l2.79,34.77h37.1Q507.28,681.07,498,573.24,464.48,573,431,573.85Zm24.69,145.72Q459.38,664.8,463.1,610l1.79,0q4.35,54.74,8.67,109.52Q464.62,719.53,455.69,719.57Z"/><path class="cls-4" d="M627.14,711.05q-5-66.59-10-133.6-18.32-1.17-36.67-2Q574.72,642.48,569,709.87q-5.24-67.54-10.51-135.34-19.28-.69-38.56-1,10.47,107.78,20.8,215.19h47.79q4.83-51.23,9.68-102.19,4.75,51.22,9.48,102.19h47q11.07-104.22,22.12-206.55-19.32-1.8-38.73-3.24Q632.63,644.72,627.14,711.05Z"/><path class="cls-4" d="M727.08,754.39q.2-83.45.38-166.89-19.44-2.31-39-4.24-.35,102.72-.7,205.43h79.54V755.27Q747.21,754.79,727.08,754.39Z"/><g id="Top-2" data-name="Top"><path class="cls-5" d="M288.49,662.06q4.92-9.3,4.87-23.9l0-9c-.07-16.85-3.35-28.69-9.86-35.38s-16.85-9.3-31-7.71q-26.37,3-52.58,6.6V687.3C226.67,685,255.49,683,286,681.35a23.21,23.21,0,0,0-12.48-6.63A25.38,25.38,0,0,0,288.49,662.06ZM252.88,658c-1,3-3.35,4.61-7,4.87l-8,.58q0-22.3-.1-44.64L246,618q8.29-.81,8.33,9l.06,20.4A32.66,32.66,0,0,1,252.88,658Z"/><path class="cls-5" d="M401.77,603.16q-2.65-13.33-10.4-20.48t-22.85-6.33q-30.18,1.67-60.24,4.2.18,49.83.37,99.66c24.59-1.15,50.16-2.06,76.5-2.71q11.27-4.28,15.31-14.81t4-28.06A164.54,164.54,0,0,0,401.77,603.16ZM358,655.4l-9.49.38q-.06-19.56-.14-39.11l9.16-.46q4.9-.24,6.71,3.53t1.84,16.2C366.08,648.72,363.37,655.2,358,655.4Z"/><path class="cls-5" d="M498,573.24q-33.5-.24-67,.61-4.47,51.51-8.91,102.9,18.06-.27,36.52-.39,2.24-33.17,4.49-66.36h1.79q2.64,33.15,5.26,66.32,6.94,0,14,0,11.43,0,22.74.07Q502.42,624.81,498,573.24Z"/><path class="cls-5" d="M558.51,574.52q4,51.38,8,102.6-18-.37-36.55-.58-5-51.48-10-103Q539.24,573.85,558.51,574.52Z"/><path class="cls-5" d="M617.12,577.45q3.79,50.77,7.6,101.32-25.89-.94-52.93-1.54,4.32-51,8.67-101.81Q598.81,576.29,617.12,577.45Z"/><path class="cls-5" d="M676.84,582.14q-5.3,49-10.58,98.39-17.89-.88-36.47-1.57,4.15-50.18,8.31-100.07Q657.49,580.35,676.84,582.14Z"/><path class="cls-5" d="M727.46,587.5q-.11,48.3-.22,96.61-19-1.33-39.08-2.45.15-49.2.33-98.4Q708,585.19,727.46,587.5Z"/></g></g></g><g id="Tournament"><path class="cls-6" d="M308.12,840.93v12h7.4V903.2H328V852.88h7.4v-12Z"/><path class="cls-6" d="M365.14,844.5q-3.92-4.14-11.45-4.14t-11.44,4.14q-3.92,4.14-3.91,12.14v29.58q0,8.53,4,13c2.63,3,6.42,4.52,11.4,4.52s8.79-1.51,11.42-4.52,3.94-7.34,3.94-13V856.64Q369.05,848.63,365.14,844.5Zm-8.5,42.32c0,3.66-.95,5.48-2.84,5.48a2.46,2.46,0,0,1-2.33-1.25,8.86,8.86,0,0,1-.71-4.16V856.53c0-3.14,1-4.71,3.11-4.71q2.78,0,2.77,4.61Z"/><path class="cls-6" d="M391.52,840.93V886a26.68,26.68,0,0,1-.16,3,5,5,0,0,1-.8,2.35,2.36,2.36,0,0,1-2.08.9,2.29,2.29,0,0,1-2.05-.92,5.11,5.11,0,0,1-.82-2.35,24,24,0,0,1-.18-3V840.93h-12.1v45.61q0,8.49,3.68,12.86t11.47,4.37q7.78,0,11.46-4.37t3.68-12.86V840.93Z"/><path class="cls-6" d="M432.67,870.72a7.5,7.5,0,0,0,4.87-4.21,21.23,21.23,0,0,0,1.29-8.14,44.87,44.87,0,0,0-.83-9.18,11,11,0,0,0-3.27-6.09c-1.64-1.45-4-2.17-7.22-2.17H408.4V903.2H421V874.79a7.53,7.53,0,0,1,3.6.65q1.11.66,1.11,3.39V903.2H438V879.64a13.18,13.18,0,0,0-1.18-6A5.59,5.59,0,0,0,432.67,870.72Zm-8.6-6.72h-3V852.46H424a2.15,2.15,0,0,1,2.12,1.13,12.71,12.71,0,0,1,.57,4.78Q426.66,864,424.07,864Z"/><path class="cls-6" d="M461.47,840.93v29.82l-5.73-29.82h-12.8V903.2H455.1V872.06l6.23,31.14H473.5V840.93Z"/><path class="cls-6" d="M504.47,840.93H483.34l-6,62.27h12.1l.78-10.05h7.5l.88,10.05h11.78Zm-13.38,42.28,2.37-31.67H494l2.72,31.67Z"/><path class="cls-6" d="M543.6,840.93l-5.2,38-5.24-38h-19V903.2h11.25V858.33L533,903.2H544.2l7.15-44.87V903.2h11.39V840.93Z"/><path class="cls-6" d="M580.93,891.07V876.8h11.75V865.09H580.93V853h12.24v-12h-24.9V903.2H594V891.07Z"/><path class="cls-6" d="M616.63,840.93v29.82l-5.73-29.82H598.09V903.2h12.18V872.06l6.22,31.14h12.18V840.93Z"/><path class="cls-6" d="M632.13,840.93v12h7.4V903.2H652V852.88h7.4v-12Z"/><path class="cls-6" d="M293.63,874.17a9.87,9.87,0,1,1-9.87-9.87A9.87,9.87,0,0,1,293.63,874.17Z"/><path class="cls-6" d="M693.6,874.17a9.87,9.87,0,1,1-9.86-9.87A9.86,9.86,0,0,1,693.6,874.17Z"/><g id="Top-3" data-name="Top"><path class="cls-7" d="M308.12,840.93v12h7.4v21.21c4.1-.18,8.24-.37,12.45-.54V852.88h7.4v-12Z"/><path class="cls-7" d="M365.14,844.5q-3.92-4.14-11.45-4.14t-11.44,4.14q-3.92,4.14-3.91,12.14v16.5c4.09-.15,8.23-.31,12.42-.45V856.53c0-3.14,1-4.71,3.11-4.71q2.78,0,2.77,4.61v16.06q6.15-.21,12.41-.39V856.64Q369.05,848.63,365.14,844.5Z"/><path class="cls-7" d="M391.52,840.93V871.5l12.1-.26V840.93ZM373.33,872q6-.18,12.1-.32V840.93h-12.1Z"/><path class="cls-7" d="M438,849.19a11,11,0,0,0-3.27-6.09c-1.64-1.45-4-2.17-7.22-2.17H408.4v30.21q12-.24,24.34-.41h-.07a7.5,7.5,0,0,0,4.87-4.21,21.23,21.23,0,0,0,1.29-8.14A44.87,44.87,0,0,0,438,849.19ZM424.07,864h-3V852.46H424a2.15,2.15,0,0,1,2.12,1.13,12.71,12.71,0,0,1,.57,4.78Q426.66,864,424.07,864Z"/><path class="cls-7" d="M461.47,840.93v29.5l12-.07V840.93Zm-18.53,0V870.6l18.47-.17-5.67-29.5Z"/><path class="cls-7" d="M504.47,840.93H483.34l-2.84,29.4,11.55,0,1.41-18.77H494l1.61,18.77,11.62,0Z"/><path class="cls-7" d="M543.6,840.93l-4.05,29.61,9.84.11,2-12.32v12.35l11.39.16V840.93Zm-29.4,0v29.42l11.25.07V858.33l2,12.1c3.27,0,6.52.05,9.76.09l-4.09-29.59Z"/><path class="cls-7" d="M593.17,853v-12h-24.9v30q12.39.21,24.41.49v-6.34H580.93V853Z"/><path class="cls-7" d="M616.63,840.93v29.82l-5.73-29.82H598.09v30.63q15.67.41,30.58.91V840.93Z"/><path class="cls-7" d="M632.13,840.93v12h7.4v20c4.2.16,8.36.32,12.45.5V852.88h7.4v-12Z"/><path class="cls-7" d="M293.63,874.17c0,.34,0,.68-.05,1q-10,.54-19.46,1.12a9.87,9.87,0,1,1,19.51-2.13Z"/><path class="cls-7" d="M693.6,874.17a8.43,8.43,0,0,1-.08,1.24c-6.35-.37-12.91-.73-19.64-1.06a1.15,1.15,0,0,1,0-.18,9.87,9.87,0,1,1,19.73,0Z"/></g></g><path id="Ball" class="cls-8" d="M874.05,570a60.47,60.47,0,0,1-1.42,13.14,61.08,61.08,0,0,1-119.29,0,61.51,61.51,0,0,1,0-26.28A61.07,61.07,0,0,1,874.05,570Z"/></g></svg>