<svg xmlns="http://www.w3.org/2000/svg" viewBox="0 0 505.59 213.22"><defs><style>.cls-1{fill:#fff000;}</style></defs><g id="Calque_2" data-name="Calque 2"><g id="Calque_2-2" data-name="Calque 2"><polygon class="cls-1" points="407.57 94.97 406.75 155.92 375.03 153.57 381.79 91.3 382.35 86.18 359.15 82.44 355.43 81.84 355.06 87.49 348.75 183.81 349.87 183.87 424.02 188.05 424.07 188.05 428.6 94.93 407.57 94.62 407.57 94.97"/><path class="cls-1" d="M505.18,182.46,501,125.77l-25.31-11.23,23.45-14-3.11-42-133.86-9v-.12h-.08l0,.12-10.58-.71c-1.62-.11-3.24-.16-4.86-.16h-.46c-1.38,0-2.76.06-4.13.16l-.48,0L318,50.62l-3.13.23-1.83,60.94-26.84,10.86-6.82-92.24,0-.48L247.65,46.21l.07.46L271,190.91l20.16-1.49-4.06-37.71,30.66-13.66,3.63,49.13,11.56-.86h0l1-.08h0l4.48-.33,5.26-100,.75-14.22,0-.18,15.44,2,38.87,5,3.54.46,35.52,4.6,1.43,98.7.15,10.34.23,16.14L505.59,188ZM480.34,72.82l1.25,16.86-23.82,11.51-2.12-28.66Zm-20.76,106.1-3.26-44,25.73,8.66,1.56,21Z"/><path class="cls-1" d="M119.86,176.8A59,59,0,0,1,36.41,93.35l7.93-7.92L30.81,71.9l-7.92,7.93a78.14,78.14,0,1,0,110.5,110.5l7.93-7.92-13.53-13.53Z"/><polygon class="cls-1" points="160.01 53.21 107.67 65.8 102.38 0 42.6 61.48 56.23 74.74 86.79 43.31 90.5 89.49 134.25 78.97 123.72 122.72 169.9 126.43 138.48 156.99 151.74 170.62 213.22 110.83 147.41 105.54 160.01 53.21"/></g></g></svg>